
<svg xmlns="http://www.w3.org/2000/svg"
     class="svg-snoweb svg-theme-light"
     x="0"
     y="0"
     width="100%"
     height="100%"
     viewBox="0 0 100 100"
     preserveAspectRatio="xMidYMid meet"
>
<defs>
    <style>
        
            
            
            
        

        .svg-fill-primary {
            fill: #090D49;
        }

        .svg-fill-secondary {
            fill: #65CDAE;
        }

        .svg-fill-tertiary {
            fill: #E5E7EB;
        }

        .svg-stroke-primary {
            stroke: #090D49;
        }

        .svg-stroke-secondary {
            stroke: #65CDAE;
        }

        .svg-stroke-tertiary {
            stroke: #E5E7EB;
        }
    </style>
</defs>
    

<clipPath id="clip-path-202310-1816-4201-d0adb6f8-3f1e-4da6-8550-845efb484d73">
    <rect x="0" y="95" width="100" height="5"></rect>
</clipPath>
<g clip-path="url(#clip-path-202310-1816-4201-d0adb6f8-3f1e-4da6-8550-845efb484d73)">
    <rect 
            class="svg-fill-tertiary"
            x="0"
            y="95"
            width="100"
            height="5">
    </rect>
    <g transform="translate(0, 50)">
        <circle 
                class="svg-fill-secondary svg-builder-circle"
                cx="50"
                cy="50"
                r="50">
        </circle>
    </g>
</g>

    <g transform="translate(20.00, 20.00) scale(0.60, 0.60)">
        
        <path d="M13.4,50l8.1-8.1m0,0L50,13.4,78.5,41.9m-57,0V82.6a4,4,0,0,0,4.1,4H37.8M78.5,41.9,86.6,50m-8.1-8.1V82.6a4,4,0,0,1-4.1,4H62.2m-24.4,0a4.1,4.1,0,0,0,4.1-4V66.3a4,4,0,0,1,4-4.1h8.2a4,4,0,0,1,4,4.1V82.6a4.1,4.1,0,0,0,4.1,4m-24.4,0H62.2"
          fill="none" class="svg-stroke-primary" stroke-linecap="round" stroke-linejoin="round" stroke-width="8"/>


    </g>
</svg>