<svg fill="none" height="512" viewBox="0 0 20 22" width="512" xmlns="http://www.w3.org/2000/svg"><g fill="rgb(0,0,0)"><path d="m10.75 12c0-.4142-.3358-.75-.75-.75-.41418 0-.74997.3358-.74997.75v4c0 .4142.33579.75.74997.75.4142 0 .75-.3358.75-.75z"/><path clip-rule="evenodd" d="m10 .25c-3.1756 0-5.74997 2.57436-5.74997 5.75v.52281l-.02684.00861c-1.75052.56878-3.12295 1.94121-3.691732 3.69178-.281874.8675-.28171 1.9087-.281442 3.615v.3236c-.000268 1.7063-.000432 2.7475.281442 3.615.568782 1.7506 1.941212 3.123 3.691732 3.6918.86751.2819 1.90872.2817 3.61498.2814h4.32373c1.7063.0003 2.7475.0005 3.615-.2814 1.7505-.5688 3.1229-1.9412 3.6917-3.6918.2819-.8675.2817-1.9087.2814-3.6149v-.3238c.0003-1.7062.0005-2.7474-.2814-3.6149-.5688-1.75057-1.9412-3.123-3.6917-3.69178l-.0269-.00861v-.52281c0-3.17564-2.5743-5.75-5.75-5.75zm-2.08394 6c-.8792-.00003-1.58092-.00006-2.16603.03306v-.28306c0-2.34721 1.90279-4.25 4.24997-4.25 2.3472 0 4.25 1.90279 4.25 4.25v.28306c-.5851-.03312-1.2868-.03309-2.166-.03306zm-2.79143 1.60329c.5976-.10067 1.40355-.10329 2.8754-.10329h3.99997c1.4719 0 2.2778.00262 2.8754.10329.1653.02784.3078.06242.438.10472 1.2938.4204 2.3082 1.43481 2.7286 2.72869.1988.6117.208 1.3936.208 3.3133s-.0092 2.7016-.208 3.3133c-.4204 1.2939-1.4348 2.3083-2.7286 2.7287-.6118.1987-1.3937.208-3.3134.208h-3.99997c-1.91965 0-2.70161-.0093-3.31332-.208-1.29386-.4204-2.30827-1.4348-2.72867-2.7287-.19875-.6117-.20801-1.3936-.20801-3.3133s.00926-2.7016.20801-3.3133c.4204-1.29388 1.43481-2.30829 2.72867-2.72869.13017-.0423.27267-.07688.43792-.10472z" fill-rule="evenodd"/></g></svg>